<svg width="952" height="160" viewBox="0 0 952 160" fill="none" xmlns="http://www.w3.org/2000/svg">
<path d="M0.117394 0.0515614C2.38155 0.00879289 4.71974 0.0286837 6.98888 0.0266945L36.1722 0.0239627C41.9133 0.0254546 48.2749 -0.112057 53.9614 0.255703C70.4713 1.32318 86.1811 7.6313 97.9804 19.4297C105.386 26.8771 110.595 36.2139 113.035 46.4174C115.196 55.1526 114.907 61.562 114.892 70.3979L114.889 86.8133L114.864 137.366L169.878 137.396C170.097 144.466 169.973 152.882 169.876 160L91.1535 159.998C90.8744 137.406 91.1186 114.266 91.1236 91.625L91.1336 73.7838C91.1361 66.3896 91.4376 61.4118 89.9222 54.1302C85.5604 38.5144 76.2887 28.7632 60.2818 24.5017C53.0948 22.5886 46.9406 22.7679 39.5781 22.7696L23.4753 22.7875L23.4601 107.171L39.8189 107.189C43.8973 107.19 48.6522 107.328 52.6461 106.828C65.8724 105.171 75.7463 99.4206 83.9403 89.1673C84.1223 99.1182 83.9902 109.399 83.9677 119.358C64.6598 131.256 52.3106 130.065 30.7593 130.07L0.0560861 130.032L0.0735352 50.5655C0.0695473 33.8218 -0.115652 16.7629 0.117394 0.0515614Z" fill="black"/>
<path d="M235.08 121.2H193V4.24001H233.96C268.52 4.24001 292.36 28.08 292.36 62.96C292.36 97.36 269 121.2 235.08 121.2ZM232.04 23.12H213.48V102.32H233.16C256.52 102.32 270.76 87.28 270.76 62.96C270.76 38.16 256.2 23.12 232.04 23.12Z" fill="black"/>
<path d="M353.357 41.84V59.92H346.158C332.078 59.92 323.277 67.44 323.277 82.8V121.2H303.757V42.32H322.158L323.277 53.84C326.637 46 334.158 40.72 344.717 40.72C347.438 40.72 350.157 41.04 353.357 41.84Z" fill="black"/>
<path d="M354.474 81.52C354.474 56.88 372.234 39.92 396.714 39.92C421.194 39.92 438.954 56.88 438.954 81.52C438.954 106.16 421.194 123.12 396.714 123.12C372.234 123.12 354.474 106.16 354.474 81.52ZM373.994 81.52C373.994 95.92 383.274 105.68 396.714 105.68C410.154 105.68 419.434 95.92 419.434 81.52C419.434 67.12 410.154 57.36 396.714 57.36C383.274 57.36 373.994 67.12 373.994 81.52Z" fill="black"/>
<path d="M444.986 81.52C444.986 56.88 462.746 39.92 487.226 39.92C511.706 39.92 529.466 56.88 529.466 81.52C529.466 106.16 511.706 123.12 487.226 123.12C462.746 123.12 444.986 106.16 444.986 81.52ZM464.506 81.52C464.506 95.92 473.786 105.68 487.226 105.68C500.666 105.68 509.946 95.92 509.946 81.52C509.946 67.12 500.666 57.36 487.226 57.36C473.786 57.36 464.506 67.12 464.506 81.52Z" fill="black"/>
<path d="M540.139 157.84V42.16H558.219L559.499 54.16C564.299 45.04 574.699 39.76 586.699 39.76C608.939 39.76 623.659 55.92 623.659 80.72C623.659 105.36 610.219 123.28 586.699 123.28C574.859 123.28 564.619 118.64 559.659 110.64V157.84H540.139ZM559.819 81.68C559.819 95.92 568.619 105.68 582.059 105.68C595.819 105.68 603.979 95.76 603.979 81.68C603.979 67.6 595.819 57.52 582.059 57.52C568.619 57.52 559.819 67.44 559.819 81.68Z" fill="black"/>
<path d="M628.321 97.2H646.881C647.041 104.08 652.161 108.4 661.121 108.4C670.241 108.4 675.201 104.72 675.201 98.96C675.201 94.96 673.121 92.08 666.081 90.48L651.841 87.12C637.601 83.92 630.721 77.2 630.721 64.56C630.721 49.04 643.841 39.76 662.081 39.76C679.841 39.76 691.841 50 692.001 65.36H673.441C673.281 58.64 668.801 54.32 661.281 54.32C653.601 54.32 649.121 57.84 649.121 63.76C649.121 68.24 652.641 71.12 659.361 72.72L673.601 76.08C686.881 79.12 693.601 85.2 693.601 97.36C693.601 113.36 680.001 123.28 660.481 123.28C640.801 123.28 628.321 112.72 628.321 97.2Z" fill="black"/>
<path d="M727.024 4.24001V102.32H775.984V121.2H706.544V4.24001H727.024Z" fill="black"/>
<path d="M808.478 123.28C791.678 123.28 781.438 113.52 781.438 98.64C781.438 84.08 791.998 74.96 810.718 73.52L834.398 71.76V70C834.398 59.28 827.998 54.96 818.078 54.96C806.558 54.96 800.158 59.76 800.158 68.08H783.518C783.518 50.96 797.598 39.76 819.038 39.76C840.318 39.76 853.438 51.28 853.438 73.2V121.2H836.318L834.878 109.52C831.517 117.68 820.798 123.28 808.478 123.28ZM814.878 108.56C826.878 108.56 834.558 101.36 834.558 89.2V85.04L818.078 86.32C805.918 87.44 801.278 91.44 801.278 97.84C801.278 105.04 806.078 108.56 814.878 108.56Z" fill="black"/>
<path d="M885.894 121.2H867.814V2.16H887.334V53.68C892.454 44.88 903.014 39.6 915.014 39.6C937.574 39.6 951.334 57.2 951.334 82.16C951.334 106.48 936.454 123.28 913.734 123.28C901.894 123.28 891.814 118 887.174 108.88L885.894 121.2ZM887.494 81.36C887.494 95.6 896.294 105.36 909.734 105.36C923.494 105.36 931.654 95.44 931.654 81.36C931.654 67.28 923.494 57.2 909.734 57.2C896.294 57.2 887.494 67.12 887.494 81.36Z" fill="black"/>
</svg>
