<svg width="1024" height="1024" viewBox="0 0 1024 1024" fill="none" xmlns="http://www.w3.org/2000/svg">
<rect width="1024" height="1024" fill="#D7FB3E"/>
<path d="M258.351 272.155C265.131 272.026 272.131 272.086 278.926 272.08L366.304 272.072C383.493 272.076 402.541 271.664 419.567 272.767C468.999 275.97 516.036 294.894 551.365 330.289C573.537 352.631 589.134 380.642 596.44 411.252C602.91 437.458 602.044 456.686 601.999 483.194L601.992 532.44L601.917 684.098L766.635 684.188C767.292 705.398 766.919 730.645 766.628 752L530.924 751.993C530.089 684.219 530.82 614.797 530.835 546.875L530.865 493.351C530.872 471.169 531.775 456.235 527.238 434.391C514.178 387.543 486.417 358.29 438.491 345.505C416.972 339.766 398.546 340.304 376.502 340.309L328.288 340.363L328.242 593.512L377.222 593.567C389.434 593.57 403.67 593.985 415.629 592.484C455.23 587.512 484.793 570.262 509.327 539.502C509.872 569.355 509.476 600.196 509.409 630.075C451.599 665.767 414.624 662.195 350.097 662.211L258.168 662.097L258.22 423.696C258.208 373.465 257.654 322.289 258.351 272.155Z" fill="black"/>
</svg>
